# AST/ASF file generated using VICON BodyLanguage
# -----------------------------------------------
:version 1.10
:name VICON
:units
  mass 1.0
  length 0.45
  angle deg
:documentation
   .ast/.asf automatically generated from VICON data using
   VICON BodyBuilder and BodyLanguage model FoxedUp or BRILLIANT.MOD
:root
   order TX TY TZ RX RY RZ
   axis XYZ
   position 0 0 0  
   orientation 0 -0 0 
:bonedata
  begin
     id 1 
     name lhipjoint
     direction 0.432694 -0.693742 0.575759 
     length 2.19277 
     axis 0 -0 0  XYZ
  end
  begin
     id 2 
     name lfemur
     direction 0.34202 -0.939693 0  
     length 6.69022  
     axis 0 -0 20  XYZ
    dof rx ry rz
    limits (-160.0 20.0)
           (-70.0 70.0)
           (-60.0 70.0)
  end
  begin
     id 3 
     name ltibia
     direction 0.34202 -0.939693 0   
     length 6.50337   
     axis 0 -0 20   XYZ
    dof rx
    limits (-10.0 170.0)
  end
  begin
     id 4 
     name lfoot
     direction 0.158999 -0.435969 0.885805   
     length 2.70564   
     axis -90 -1.13533e-015 20   XYZ
    dof rx rz
    limits (-45.0 90.0)
           (-70.0 20.0)
  end
  begin
     id 5 
     name ltoes
     direction -0.00592919 0.00964381 0.999936   
     length 1.29929   
     axis -90 -1.13533e-015 20   XYZ
    dof rx
    limits (-90.0 20.0)
  end
  begin
     id 6 
     name rhipjoint
     direction -0.414359 -0.700339 0.581234   
     length 2.17212  
     axis 0 -0 0  XYZ 
  end
  begin
     id 7 
     name rfemur
     direction -0.34202 -0.939693 0   
     length 7.17659   
     axis 0 -0 -20   XYZ
    dof rx ry rz
    limits (-160.0 20.0)
           (-70.0 70.0)
           (-70.0 60.0)
  end
  begin
     id 8 
     name rtibia
     direction -0.34202 -0.939693 0   
     length 6.36669   
     axis 0 -0 -20   XYZ
    dof rx
    limits (-10.0 170.0)
 end
 begin
     id 9 
     name rfoot
     direction -0.137064 -0.37658 0.916188   
     length 2.22351  
     axis -90 1.13533e-015 -20   XYZ
    dof rx rz
    limits (-45.0 90.0)
           (-20.0 70.0)
  end
  begin
     id 10 
     name rtoes
     direction -0.000784077 -0.00289101 0.999996   
     length 1.09522   
     axis -90 1.13533e-015 -20   XYZ
    dof rx
    limits (-90.0 20.0)
  end
  begin
     id 11 
     name lowerback
     direction -0.0176242 0.984912 -0.172157   
     length 1.65301   
     axis 0 -0 0   XYZ
    dof rx ry rz
    limits (-20.0 45.0)
           (-30.0 30.0)
           (-30.0 30.0)
  end
  begin
     id 12 
     name upperback
     direction -0.00218128 0.998776 -0.0494072   
     length 1.67776   
     axis 0 -0 0   XYZ
    dof rx ry rz
    limits (-20.0 45.0)
           (-30.0 30.0)
           (-30.0 30.0)
  end
  begin
     id 13 
     name thorax
     direction 0.00544186 0.999658 0.0255711   
     length 1.72293   
     axis 0 -0 0   XYZ
    dof rx ry rz
    limits (-20.0 45.0)
           (-30.0 30.0)
           (-30.0 30.0)
  end
  begin
     id 14 
     name lowerneck
     direction -0.105325 0.983841 0.144785   
     length 2.14226   
     axis 0 -0 0   XYZ
    dof rx ry rz
    limits (-20.0 45.0)
           (-30.0 30.0)
           (-30.0 30.0)
  end
  begin
     id 15 
     name upperneck
     direction 0.0547957 0.988053 -0.144041   
     length 2.17508   
     axis 0 -0 0   XYZ
    dof rx ry rz
    limits (-20.0 45.0)
           (-30.0 30.0)
           (-30.0 30.0)
  end
  begin
     id 16
     name head
     direction 0.0247488 0.997534 -0.0656813  
     length 2.20048  
     axis 0 -0 0   XYZ
    dof rx ry rz
    limits (-20.0 45.0)
           (-30.0 30.0)
           (-30.0 30.0)
  end
  begin
     id 17 
     name lclavicle
     direction 0.820559 0.567247 -0.0701026  
     length 4.09615  
     axis 0 -0 0   XYZ
    dof ry rz
    limits (-20.0 10.0)
           (0.0 20.0)
  end
  begin
     id 18 
     name lhumerus
     direction 0.999977 -0.0067566 -9.96392e-005   
     length 4.59333   
     axis -180 -30 -90   XYZ
    dof rx ry rz
    limits (-60.0 90.0)
           (-90.0 90.0)
           (-90.0 90.0)
  end
  begin
     id 19
     name lradius
     direction 1 -4.48982e-011 -2.53425e-027   
     length 2.81151   
     axis -180 -30 -90   XYZ
    dof rx
    limits (-10.0 170.0)
  end
  begin
     id 20
     name lwrist
     direction 1 -4.48939e-011 -7.39254e-028   
     length 1.40576   
     axis 2.56395e-016 90 90   XYZ
    dof ry
    limits (-180.0 0.0)
 end
  begin
     id 21 
     name lhand
     direction 1 -4.48939e-011 -1.47851e-027   
     length 0.895651   
     axis 9.43423e-016 90 90   XYZ
    dof rx rz
    limits (-90.0 90.0)
           (-45.0 45.0)
  end
  begin
     id 22 
     name lfingers
     direction 1 -4.48978e-011 -2.95702e-027   
     length 0.722097   
     axis 1.88685e-015 90 90   XYZ
    dof rx
    limits (0.0 90.0)
  end
  begin
     id 23
     name lthumb
     direction 0.707107 -6.34931e-011 0.707107   
     length 1.03679   
     axis -90 45 -9.86935e-015   XYZ
    dof rx rz
    limits (-45.0 45.0)
           (-45.0 45.0)
  end
  begin
     id 24 
     name rclavicle
     direction -0.831414 0.553102 -0.0531864   
     length 4.24872  
     axis 0 -0 0   XYZ 
    dof ry rz
    limits (-10.0 20.0)
           (-20.0 0.0)
  end
  begin
     id 25 
     name rhumerus
     direction -0.999916 -0.000939607 0.0129331  
     length 4.74834   
     axis -180 30 90   XYZ
    dof rx ry rz
    limits (-90.0 60.0)
           (-90.0 90.0)
           (-90.0 90.0)
  end
  begin
     id 26 
     name rradius
     direction -1 -4.48956e-011 -1.31752e-027   
     length 2.79907   
     axis -180 30 90   XYZ
    dof rx
    limits (-10.0 170.0)
  end
  begin
     id 27 
     name rwrist
     direction -1 -4.4897e-011 -7.39254e-028   
     length 1.39954   
     axis 2.56395e-016 -90 -90   XYZ
    dof ry
    limits (-180.0 0.0)
  end
  begin
     id 28
     name rhand
     direction -0.999997 -0.00250697 0.000800838   
     length 0.953304   
     axis 9.43423e-016 -90 -90   XYZ
    dof rx rz
    limits (-90.0 90.0)
           (-45.0 45.0)
  end
  begin
     id 29
     name rfingers
     direction -1 -4.48954e-011 -2.95702e-027   
     length 0.763342   
     axis 1.88685e-015 -90 -90   XYZ
    dof rx
    limits (0.0 90.0)
  end
  begin
     id 30
     name rthumb
     direction -0.709701 -0.00217037 0.7045   
     length 1.10115   
     axis -90 -45 9.86935e-015   XYZ
    dof rx rz
    limits (-45.0 45.0)
           (-45.0 45.0)
  end
:hierarchy
  begin
    root lhipjoint rhipjoint lowerback
    lhipjoint lfemur
    lfemur ltibia
    ltibia lfoot
    lfoot ltoes
    rhipjoint rfemur
    rfemur rtibia
    rtibia rfoot
    rfoot rtoes
    lowerback upperback
    upperback thorax
    thorax lowerneck lclavicle rclavicle
    lowerneck upperneck
    upperneck head
    lclavicle lhumerus
    lhumerus lradius
    lradius lwrist
    lwrist lhand lthumb
    lhand lfingers
    rclavicle rhumerus
    rhumerus rradius
    rradius rwrist
    rwrist rhand rthumb
    rhand rfingers
  end

#!OML:ASF G:\ViconDB\ViconDB\414\test\team2\shane.ASF
:FULLY-SPECIFIED
:DEGREES
32
root 3.19716 16.1472 -27.8711 -5.31508 -4.56451 -3.48299
lowerback 4.7707 6.30481 -0.127289
upperback 5.00188 8.37272 2.08118
thorax 2.17551 4.15706 1.95555
lowerneck -14.873 -11.0436 -16.8633
upperneck 18.3625 -15.2206 16.9777
head 11.0991 -6.59007 6.54773
rclavicle 4.57205e-014 3.57812e-014
rhumerus -22.4781 21.5511 -96.6036
rradius 31.2841
rwrist 34.4185
rhand -30.7086 -13.6568
rfingers 7.12502
rthumb -4.00175 -43.599
lclavicle 9.04439e-014 1.68967e-015
lhumerus -42.6593 -6.86693 98.6702
lradius 25.4068
lwrist -9.24143
lhand -37.6909 7.02875
lfingers 7.12502
lthumb -10.7411 36.7341
rfemur 25.6227 -5.61306 14.1928
rtibia 32.0093
rfoot -5.13196 5.58296
rtoes -26.9505
lfemur -21.7765 5.79167 -13.6699
ltibia 47.8159
lfoot -24.569 -10.4188
ltoes -3.39412
33
root 3.22858 16.1777 -27.6939 -5.3456 -4.3839 -3.48813
lowerback 6.86574 5.49541 5.55653
upperback 3.92183 7.63595 -2.79648
thorax 1.37108 3.99674 -6.36081
lowerneck -15.4378 -10.2315 -10.492
upperneck 18.8175 -16.0578 18.4169
head 11.1342 -6.3374 5.87842
rclavicle 4.57205e-014 3.57812e-014
rhumerus -22.4781 21.5511 -96.6036
rradius 31.2841
rwrist 34.4185
rhand -30.7086 -13.6568
rfingers 7.12502
rthumb -4.00175 -43.599
lclavicle -7.26558e-014 1.98785e-014
lhumerus -43.2814 -12.3977 93.2827
lradius 26.3066
lwrist -6.75436
lhand -37.4635 7.59779
lfingers 7.12502
lthumb -10.5218 37.3144
rfemur 23.2342 -6.27833 13.5086
rtibia 36.9585
rfoot -2.77483 6.28387
rtoes -24.2309
lfemur -20.8041 5.44395 -13.8224
ltibia 47.4027
lfoot -24.989 -10.0266
ltoes -3.35451
34
root 3.26358 16.204 -27.5225 -5.46554 -4.39498 -3.34219
lowerback 5.1009 5.83379 -0.168095
upperback 4.9768 7.74742 1.77309
thorax 2.02352 3.84813 1.64892
lowerneck -15.5198 -10.7685 -16.1716
upperneck 18.9117 -14.9886 16.9782
head 11.321 -6.39392 6.47901
rclavicle -1.16805e-013 1.70955e-014
rhumerus -22.4781 21.5511 -96.6036
rradius 31.2841
rwrist 34.4185
rhand -30.7086 -13.6568
rfingers 7.12502
rthumb -4.00175 -43.599
lclavicle -1.16805e-013 1.70955e-014
lhumerus -41.5134 -6.46254 98.5324
lradius 25.02
lwrist -8.30442
lhand -37.2527 5.65145
lfingers 7.12502
lthumb -10.3184 35.3783
rfemur 20.9019 -6.90376 12.6329
rtibia 41.6522
rfoot 0.0123255 7.09862
rtoes -20.2765
lfemur -19.8052 5.3269 -14.1345
ltibia 46.9668
lfoot -25.2602 -9.68758
ltoes -3.8006
35
root 3.29396 16.2362 -27.3516 -5.61749 -4.48165 -3.23659
lowerback 5.28191 5.65644 -0.216534
upperback 5.05963 7.51016 1.61807
thorax 2.03032 3.72988 1.5134
lowerneck -15.8106 -10.6394 -15.8449
upperneck 19.0391 -14.8883 17.0612
head 11.3859 -6.29984 6.47314
rclavicle 2.60408e-014 -7.65321e-015
rhumerus -22.4781 21.5511 -96.6036
rradius 31.2841
rwrist 34.4185
rhand -30.7086 -13.6568
rfingers 7.12502
rthumb -4.00175 -43.599
lclavicle 2.60408e-014 -7.65321e-015
lhumerus -40.9467 -6.73711 98.6755
lradius 25.0244
lwrist -7.94776
lhand -37.3915 6.2898
lfingers 7.12502
lthumb -10.4523 36.01
rfemur 18.6263 -7.3628 11.9736
rtibia 46.0558
rfoot 2.63462 7.0558
rtoes -15.8856
lfemur -18.7148 5.54488 -14.3486
ltibia 46.4878
lfoot -25.5731 -9.59562
ltoes -3.57132
36
root 3.32202 16.2609 -27.185 -5.74813 -4.53553 -3.04561
lowerback 5.57203 5.38679 -0.297836
upperback 5.03994 7.14947 1.40029
thorax 1.87638 3.55101 1.31958
lowerneck -16.0207 -10.3586 -15.4589
upperneck 19.2025 -14.5827 17.0682
head 11.3961 -6.1199 6.47317
rclavicle 1.92697e-014 2.28602e-015
rhumerus -22.4781 21.5511 -96.6036
rradius 31.2841
rwrist 34.4185
rhand -30.7086 -13.6568
rfingers 7.12502
rthumb -4.00175 -43.599
lclavicle 1.92697e-014 2.28602e-015
lhumerus -40.4979 -6.80859 98.6665
lradius 25.086
lwrist -7.53323
lhand -37.4664 6.70862
lfingers 7.12502
lthumb -10.5246 36.4251
rfemur 16.3956 -7.8937 11.2715
rtibia 50.1265
rfoot 4.94453 6.81882
rtoes -11.5752
lfemur -17.7266 5.61594 -14.6884
ltibia 46.0408
lfoot -25.919 -9.28066
ltoes -3.87795
37
root 3.35142 16.278 -27.0286 -5.85912 -4.5287 -2.68638
lowerback 5.85834 5.12722 -0.594751
upperback 5.07948 6.79284 1.13435
thorax 1.76548 3.36865 1.20055
lowerneck -16.3257 -10.1294 -15
upperneck 19.2948 -14.3553 17.0936
head 11.4108 -5.96376 6.44645
rclavicle -5.13113e-014 1.15295e-014
rhumerus -22.4781 21.5511 -96.6036
rradius 31.2841
rwrist 34.4185
rhand -30.7086 -13.6568
rfingers 7.12502
rthumb -4.00175 -43.599
lclavicle -5.13113e-014 1.15295e-014
lhumerus -39.7817 -6.87686 98.5269
lradius 24.9376
lwrist -7.26702
lhand -37.5594 6.8514
lfingers 7.12502
lthumb -10.6142 36.5633
rfemur 14.236 -8.47412 10.341
rtibia 53.8794
rfoot 5.54066 5.91032
rtoes -9.57146
lfemur -16.7568 5.74872 -15.1861
ltibia 45.5588
lfoot -26.1962 -9.29068
ltoes -4.1032
38
root 3.37255 16.296 -26.8648 -6.11193 -4.6349 -2.52953
lowerback 6.1053 4.84541 -0.685277
upperback 5.2224 6.41279 0.947905
thorax 1.79778 3.17784 1.06394
lowerneck -16.6293 -9.8246 -14.5287
upperneck 19.3484 -13.9918 17.02
head 11.3754 -5.75587 6.40397
rclavicle -3.47376e-014 6.55989e-015
rhumerus -22.4781 21.5511 -96.6036
rradius 31.2841
rwrist 34.4185
rhand -30.7086 -13.6568
rfingers 7.12502
rthumb -4.00175 -43.599
lclavicle -3.47376e-014 6.55989e-015
lhumerus -39.1182 -7.22388 98.5292
lradius 24.854
lwrist -6.93941
lhand -37.9047 7.68803
lfingers 7.12502
lthumb -10.9474 37.3826
rfemur 12.3129 -8.82471 9.86999
rtibia 57.2979
rfoot 4.12768 3.69646
rtoes -9.54367
lfemur -15.5921 5.9313 -15.3572
ltibia 45.1085
lfoot -26.5029 -9.30571
ltoes -4.08813
39
root 3.39918 16.3221 -26.7077 -6.3292 -4.61614 -2.5078
lowerback 7.69368 4.10763 3.13044
upperback 4.64653 5.65537 -2.39238
thorax 1.06924 2.94416 -4.5747
lowerneck -17.0116 -9.00509 -9.90602
upperneck 19.6385 -14.3233 17.8197
head 11.3388 -5.44888 5.86679
rclavicle -1.72943e-014 7.95139e-015
rhumerus -28.5436 7.8972 -93.1096
rradius 23.551
rwrist 43.4072
rhand -29.2778 -14.8056
rfingers 7.12502
rthumb -2.62005 -44.7692
lclavicle -1.72943e-014 7.95139e-015
lhumerus -39.2735 -11.4526 94.6785
lradius 25.3572
lwrist -4.28441
lhand -37.9166 8.02906
lfingers 7.12502
lthumb -10.9589 37.723
rfemur 10.4587 -9.47318 9.51877
rtibia 60.354
rfoot 1.57712 1.52233
rtoes -11.9259
lfemur -14.5424 6.21736 -15.4476
ltibia 44.667
lfoot -26.8479 -9.35288
ltoes -4.44268
40
root 3.42683 16.3329 -26.5515 -6.61551 -4.73435 -2.28703
lowerback 7.90929 3.82304 2.71941
upperback 4.81248 5.25293 -2.28382
thorax 1.0311 2.73216 -4.22341
lowerneck -17.1621 -8.69709 -9.93832
upperneck 19.7278 -13.8309 17.6631
head 11.305 -5.2343 5.90484
rclavicle -6.4605e-015 1.82882e-014
rhumerus -29.1572 8.36654 -93.0107
rradius 23.7815
rwrist 42.5086
rhand -29.3253 -15.2296
rfingers 7.12502
rthumb -2.66588 -45.1926
lclavicle -6.4605e-015 1.82882e-014
lhumerus -38.3514 -11.2205 94.8107
lradius 24.9063
lwrist -4.14669
lhand -38.0244 7.88246
lfingers 7.12502
lthumb -11.0628 37.5709
rfemur 8.62203 -9.841 9.04905
rtibia 63.0489
rfoot -0.601199 0.412476
rtoes -12.3263
lfemur -13.399 6.52323 -15.7145
ltibia 44.2548
lfoot -27.1468 -9.41448
ltoes -4.43194
